# xmcd
#
# Track frame offsets: 
#        150
#        14917
#        21850
#        36548
#        49092
#        58613
#        71250
#        81066
#        93856
#        104435
#        118502
#        128260
#        139164
#        142844
#
# Disc length: 2230 seconds
#
# Revision: 0
# Processed by: cddbd v1.5.2PL0 Copyright (c) Steve Scherf et al.
# Submitted via: ExactAudioCopy v1.0b4
#
DISCID=b908b40e
DTITLE=Barrelhouse Chuck - Blues Calling
DYEAR=2011
DGENRE=Blues
TTITLE0=I Keep On Drinking
TTITLE1=Half Of A Pint Boogie
TTITLE2=The Alley Blues
TTITLE3=It's You Baby
TTITLE4=Anna Lee
TTITLE5=Barelhouse Woman #1
TTITLE6=Ain't Got No Money Now
TTITLE7=Church Street Blues
TTITLE8=Blues For Little Brother
TTITLE9=Ten Long Years
TTITLE10=Viola's Stomp
TTITLE11=Six Cold Feet In The Ground
TTITLE12=Gigolo
TTITLE13=Bonus Track
EXTD=
EXTT0=
EXTT1=
EXTT2=
EXTT3=
EXTT4=
EXTT5=
EXTT6=
EXTT7=
EXTT8=
EXTT9=
EXTT10=
EXTT11=
EXTT12=
EXTT13=
PLAYORDER=
